<svg xmlns="http://www.w3.org/2000/svg" version="1.0" width="128.000000pt" height="128.000000pt" viewBox="0 0 128.000000 128.000000" preserveAspectRatio="xMidYMid meet">

<g transform="translate(0.000000,128.000000) scale(0.100000,-0.100000)" fill="#fecb00" stroke="none">
<path d="M500 1264 c-177 -38 -346 -169 -428 -334 -128 -255 -82 -540 120 -742 251 -251 647 -250 898 2 253 254 253 647 0 900 -157 157 -374 221 -590 174z m289 -19 c162 -39 321 -163 400 -313 50 -98 71 -182 71 -292 0 -171 -63 -322 -182 -440 -119 -119 -268 -180 -438 -180 -171 0 -318 61 -440 181 -55 55 -79 89 -114 162 -54 114 -66 162 -66 274 0 114 20 197 72 296 77 148 235 272 395 311 77 19 223 19 302 1z" fill="#fecb00"/>
<path d="M498 1224 c-73 -17 -181 -72 -238 -119 -337 -279 -275 -813 116 -1004 397 -194 864 98 864 539 0 277 -194 522 -463 585 -77 18 -203 18 -279 -1z m282 -39 c195 -52 353 -210 405 -405 19 -70 19 -210 0 -280 -26 -98 -74 -180 -150 -255 -112 -113 -237 -165 -395 -165 -159 0 -285 52 -395 164 -115 116 -165 238 -165 397 0 46 7 109 15 139 51 192 209 352 401 405 66 18 216 18 284 0z" fill="#fecb00"/>
<path d="M618 1149 c-10 -5 -18 -17 -18 -24 0 -8 -7 -15 -15 -15 -8 0 -30 -16 -49 -35 -20 -19 -43 -35 -52 -35 -15 0 -15 -2 0 -24 11 -17 12 -26 4 -28 -7 -3 5 -31 30 -74 34 -58 39 -71 26 -80 -20 -16 -17 -37 6 -52 12 -7 18 -17 15 -23 -4 -5 4 -18 16 -28 21 -17 22 -21 11 -59 -7 -22 -19 -45 -27 -52 -12 -10 -13 -16 -3 -27 21 -26 17 -41 -19 -73 -54 -49 -66 -89 -64 -197 l1 -53 160 0 160 0 0 75 c0 91 -16 133 -64 170 -38 29 -45 55 -21 75 13 11 12 15 -5 37 -25 32 -27 101 -4 110 8 3 13 12 10 19 -3 7 7 22 21 32 l26 19 -21 19 -20 19 38 65 c43 72 47 85 24 76 -11 -4 -10 1 6 21 l21 27 -21 8 c-12 5 -35 22 -50 38 -15 17 -34 30 -42 30 -7 0 -18 10 -23 22 -11 26 -32 32 -57 17z m-38 -704 c0 -30 5 -55 10 -55 6 0 10 25 10 55 0 32 4 55 10 55 7 0 10 -24 8 -62 -3 -60 -4 -63 -28 -63 -24 0 -25 3 -28 63 -2 38 1 62 8 62 6 0 10 -23 10 -55z m134 -9 c8 -57 2 -83 -14 -56 -7 12 -11 12 -26 -1 -16 -13 -16 -10 -9 46 4 33 9 64 12 68 12 20 29 -5 37 -57z" fill="#fecb00"/>
<path d="M680 433 c0 -13 5 -23 10 -23 13 0 13 11 0 30 -8 12 -10 11 -10 -7z" fill="#fecb00"/>
<path d="M153 861 c-6 -9 -9 -36 -6 -58 3 -24 0 -44 -6 -48 -22 -13 -10 -25 24 -25 34 0 46 12 25 25 -5 3 -10 27 -10 53 0 58 -11 79 -27 53z" fill="#fecb00"/>
<path d="M1106 864 c-3 -8 -6 -38 -6 -65 0 -27 -4 -49 -10 -49 -5 0 -10 -4 -10 -10 0 -5 16 -10 35 -10 34 0 46 12 24 26 -6 4 -9 23 -6 48 6 45 -15 92 -27 60z" fill="#fecb00"/>
<path d="M425 847 c-6 -6 -9 -25 -7 -43 2 -17 -1 -41 -7 -53 -11 -19 -9 -21 17 -21 29 0 29 0 24 53 -5 62 -13 79 -27 64z" fill="#fecb00"/>
<path d="M836 838 c-3 -12 -7 -42 -9 -65 -5 -42 -4 -43 24 -43 27 0 29 2 19 20 -6 12 -9 36 -6 54 4 23 1 38 -9 46 -12 10 -15 7 -19 -12z" fill="#fecb00"/>
<path d="M233 806 c1 -23 -2 -49 -7 -58 -7 -15 -3 -18 29 -18 32 0 36 3 29 18 -5 9 -8 35 -7 58 2 36 -1 40 -22 40 -21 0 -24 -4 -22 -40z" fill="#fecb00"/>
<path d="M331 836 c-6 -7 -9 -28 -7 -47 2 -19 -1 -40 -6 -46 -8 -10 -2 -13 24 -13 l35 0 -7 40 c-4 22 -3 40 1 40 15 0 10 15 -10 27 -15 10 -22 9 -30 -1z" fill="#fecb00"/>
<path d="M918 839 c-23 -13 -24 -33 -2 -25 13 5 14 3 7 -6 -6 -7 -13 -28 -15 -45 -4 -32 -3 -33 28 -33 32 0 33 1 24 26 -6 14 -7 30 -4 35 7 12 -4 59 -14 59 -4 0 -15 -5 -24 -11z" fill="#fecb00"/>
<path d="M1005 809 c4 -21 2 -47 -5 -58 -10 -19 -8 -21 26 -21 31 0 35 3 28 18 -5 9 -8 35 -7 58 2 36 0 40 -23 40 -23 0 -25 -3 -19 -37z" fill="#fecb00"/>
<path d="M130 700 c0 -6 78 -10 215 -10 137 0 215 4 215 10 0 6 -78 10 -215 10 -137 0 -215 -4 -215 -10z" fill="#fecb00"/>
<path d="M720 700 c0 -6 78 -10 215 -10 137 0 215 4 215 10 0 6 -78 10 -215 10 -137 0 -215 -4 -215 -10z" fill="#fecb00"/>
<path d="M136 654 c-11 -28 -6 -90 8 -110 12 -15 18 -17 33 -8 19 12 31 54 15 54 -5 0 -13 -10 -18 -22 -6 -18 -8 -13 -11 26 -4 51 2 70 17 46 11 -18 25 -6 17 15 -8 20 -53 19 -61 -1z" fill="#fecb00"/>
<path d="M220 606 c0 -36 5 -68 10 -71 6 -4 10 7 10 24 0 21 5 31 15 31 10 0 15 -10 15 -30 0 -16 5 -30 10 -30 6 0 10 30 10 70 0 40 -4 70 -10 70 -5 0 -10 -14 -10 -31 0 -38 -24 -35 -28 4 -6 53 -22 26 -22 -37z" fill="#fecb00"/>
<path d="M320 600 c0 -68 1 -70 24 -70 14 0 28 5 31 10 3 6 -3 10 -14 10 -14 0 -21 6 -21 20 0 11 7 20 15 20 8 0 15 5 15 10 0 6 -7 10 -15 10 -8 0 -15 9 -15 20 0 11 6 20 14 20 8 0 18 5 21 10 4 6 -7 10 -24 10 l-31 0 0 -70z" fill="#fecb00"/>
<path d="M407 664 c-14 -14 -7 -48 14 -70 12 -12 18 -28 14 -34 -5 -8 -11 -5 -21 7 -13 17 -13 17 -14 -4 0 -27 14 -36 40 -28 26 8 26 46 0 70 -20 18 -27 45 -12 45 4 0 14 -6 21 -12 10 -11 12 -9 9 7 -3 20 -37 32 -51 19z" fill="#fecb00"/>
<path d="M487 663 c-13 -12 -7 -40 13 -58 11 -10 20 -28 20 -39 -1 -21 -1 -21 -15 -2 -16 22 -31 16 -21 -9 9 -24 37 -30 51 -11 16 21 9 49 -16 72 -25 22 -24 37 1 29 14 -5 20 -2 20 9 0 16 -40 23 -53 9z" fill="#fecb00"/>
<path d="M764 656 c-11 -29 1 -109 18 -120 23 -14 41 4 35 35 l-4 24 -8 -22 c-4 -13 -11 -20 -16 -17 -12 7 -11 94 1 94 6 0 10 -4 10 -10 0 -5 5 -10 10 -10 6 0 10 9 10 20 0 15 -7 20 -25 20 -14 0 -28 -6 -31 -14z" fill="#fecb00"/>
<path d="M870 600 c0 -68 1 -70 24 -70 14 0 28 5 31 10 3 6 -3 10 -14 10 -19 0 -21 6 -21 60 0 33 -4 60 -10 60 -6 0 -10 -30 -10 -70z" fill="#fecb00"/>
<path d="M970 606 c0 -56 3 -66 20 -71 11 -3 24 -3 30 0 13 8 13 135 0 135 -6 0 -10 -27 -10 -60 0 -33 -4 -60 -10 -60 -6 0 -10 27 -10 60 0 33 -4 60 -10 60 -6 0 -10 -28 -10 -64z" fill="#fecb00"/>
<path d="M1080 600 c0 -67 1 -70 24 -70 36 0 46 19 39 83 -6 55 -7 57 -34 57 l-29 0 0 -70z m40 35 c0 -8 -4 -15 -10 -15 -5 0 -10 7 -10 15 0 8 5 15 10 15 6 0 10 -7 10 -15z m4 -51 c7 -18 0 -34 -15 -34 -5 0 -9 11 -9 25 0 28 15 34 24 9z" fill="#fecb00"/>
<path d="M130 510 c0 -6 67 -10 180 -10 113 0 180 4 180 10 0 6 -67 10 -180 10 -113 0 -180 -4 -180 -10z" fill="#fecb00"/>
<path d="M790 510 c0 -6 67 -10 180 -10 113 0 180 4 180 10 0 6 -67 10 -180 10 -113 0 -180 -4 -180 -10z" fill="#fecb00"/>
<path d="M146 458 c4 -13 7 -35 6 -50 -2 -20 2 -28 14 -28 13 0 15 7 10 34 -4 20 -2 37 4 41 19 11 10 25 -16 25 -22 0 -24 -3 -18 -22z" fill="#fecb00"/>
<path d="M236 458 c4 -13 7 -35 6 -50 -2 -19 3 -28 13 -28 11 0 15 9 13 33 -1 17 2 40 6 50 7 14 3 17 -19 17 -23 0 -25 -3 -19 -22z" fill="#fecb00"/>
<path d="M320 471 c0 -6 5 -13 10 -16 6 -4 8 -21 4 -41 -5 -27 -3 -34 10 -34 12 0 16 9 16 34 0 19 3 41 6 50 5 12 0 16 -20 16 -14 0 -26 -4 -26 -9z" fill="#fecb00"/>
<path d="M414 464 c3 -9 6 -31 6 -50 0 -25 4 -34 16 -34 13 0 15 7 10 34 -4 20 -2 37 4 41 19 12 10 25 -16 25 -20 0 -25 -4 -20 -16z" fill="#fecb00"/>
<path d="M829 461 c6 -10 9 -31 8 -47 -1 -20 3 -29 13 -29 11 0 14 9 12 33 -2 18 2 40 9 48 9 12 6 14 -20 14 -28 0 -30 -2 -22 -19z" fill="#fecb00"/>
<path d="M916 458 c4 -13 7 -35 6 -50 -2 -19 3 -28 13 -28 11 0 15 9 13 33 -1 17 2 40 6 50 7 14 3 17 -19 17 -23 0 -25 -3 -19 -22z" fill="#fecb00"/>
<path d="M1006 463 c4 -10 7 -33 6 -50 -2 -24 2 -33 13 -33 10 0 15 9 13 28 -1 15 2 37 6 50 6 19 4 22 -19 22 -22 0 -26 -3 -19 -17z" fill="#fecb00"/>
<path d="M1090 471 c0 -6 5 -13 10 -16 6 -4 8 -21 4 -41 -5 -27 -3 -34 10 -34 12 0 16 9 16 34 0 19 3 41 6 50 5 12 0 16 -20 16 -14 0 -26 -4 -26 -9z" fill="#fecb00"/>
<path d="M343 246 c-20 -32 -21 -35 -6 -48 15 -11 16 -11 10 4 -4 11 0 21 9 26 9 5 17 13 17 18 1 5 8 8 15 8 10 -2 10 1 1 12 -16 20 -21 18 -46 -20z" fill="#fecb00"/>
<path d="M894 266 c-8 -20 21 -66 41 -66 23 0 18 34 -10 60 -22 20 -25 21 -31 6z m32 -23 c16 -21 18 -37 4 -28 -13 8 -33 45 -24 45 4 0 13 -8 20 -17z" fill="#fecb00"/>
<path d="M427 234 c-4 -4 -7 -21 -7 -38 0 -24 -3 -27 -10 -16 -8 13 -10 13 -10 -1 0 -23 11 -30 26 -18 9 7 11 21 8 35 -5 20 -3 23 11 18 12 -5 16 -3 13 6 -5 16 -21 23 -31 14z" fill="#fecb00"/>
<path d="M824 225 c-4 -9 -4 -19 0 -22 3 -4 6 -1 6 5 0 7 5 12 11 12 7 0 9 -11 6 -30 -7 -32 8 -49 26 -31 8 8 8 11 0 11 -7 0 -13 14 -15 32 -3 35 -24 49 -34 23z" fill="#fecb00"/>
<path d="M496 197 c3 -8 0 -26 -5 -40 -6 -15 -7 -27 -2 -27 5 0 12 13 16 30 4 17 11 30 16 30 6 0 7 5 4 10 -9 15 -35 12 -29 -3z" fill="#fecb00"/>
<path d="M757 203 c-12 -11 -8 -48 7 -69 11 -14 17 -16 26 -7 9 8 9 20 0 47 -11 35 -20 43 -33 29z m23 -46 c0 -18 -2 -19 -10 -7 -13 20 -13 43 0 35 6 -3 10 -16 10 -28z" fill="#fecb00"/>
<path d="M671 173 c0 -11 3 -13 6 -5 2 6 9 10 14 6 5 -3 2 -18 -6 -35 -15 -28 -15 -29 7 -29 18 0 20 2 9 9 -12 8 -12 12 -2 25 7 9 11 23 7 31 -8 21 -36 19 -35 -2z" fill="#fecb00"/>
</g>
</svg>